<svg version="1.1" xmlns="http://www.w3.org/2000/svg" viewBox="0 0 1017.6425368358239 456" width="1017.6425368358239" height="456">
  <!-- svg-source:excalidraw -->
  
  <defs>
    <style>
      @font-face {
        font-family: "Virgil";
        src: url("https://excalidraw.com/FG_Virgil.woff2");
      }
      @font-face {
        font-family: "Cascadia";
        src: url("https://excalidraw.com/Cascadia.woff2");
      }
    </style>
  </defs>
  <rect x="0" y="0" width="1017.6425368358239" height="456" fill="#ffffff"></rect><g transform="translate(72.64253683582388 212) rotate(0 37 37)"><path d="M0.198792964220047 -0.06482413411140442 C14.005151477456094 0.9107673266530036, 30.145036602020266 0.22369552642107005, 72.24030926823616 1.9686870276927948 M0.8030547946691513 0.2579934746026993 C16.221613454818726 -1.6155066022276878, 32.55226623117924 -1.1597651967406273, 74.40844868123531 0.22629190981388092 M72.70197156071663 -1.130792647600174 C73.24248336583376 17.158562520146372, 72.76202892094851 34.43421529531479, 72.11900666356087 72.5706567466259 M73.03583286702633 0.6883242279291153 C74.7457227256894 22.317829447984696, 75.52303643494844 44.86360969245434, 73.16513727605343 74.34145237505436 M73.75522950291634 74.68333527445793 C51.24482111632824 73.22557483404874, 27.108954966068268 73.74779258459806, 1.1464162170886993 72.65721508860588 M74.42594431340694 74.7579524666071 C56.734209841489786 73.51243442744017, 40.66843667328357 74.7536677762866, -0.9779696613550186 74.4264767318964 M-0.7381128966808319 72.55236431956291 C1.308316578567028 47.00708321034908, 1.5414241454005242 21.750834083557123, 1.5071082413196564 1.6219167411327362 M-0.423583522439003 73.19978834688663 C0.7263205298781396 54.00625152587891, 0.28015401452779776 32.59324754178524, 0.19153021275997162 -0.645099863409996" stroke="#000000" stroke-width="1" fill="none"></path></g><g transform="translate(386.6425368358239 211) rotate(0 37 37)"><path d="M-0.6996431648731232 -0.47521159052848816 C16.945786795020105 -1.9395394852757455, 31.199584674835208 -0.2677112153172494, 74.25305745005608 -0.6638283431529999 M-0.9307615607976913 -0.7913012653589249 C22.56219620704651 0.7596909675002098, 45.96508134305478 0.592210975587368, 74.60723902285099 0.034872040152549744 M72.19849964976311 -0.22340628504753113 C74.35894676893949 15.238763043284418, 73.29727169722318 32.20242773294449, 74.51445099711418 75.06408169865608 M74.87493540346622 0.006860718131065369 C72.58168084353208 24.139273232221605, 74.38658911913633 46.13104548752308, 73.93760944902897 74.34571407735348 M75.85955139994621 72.40562680363655 C50.07615166008472 72.68599666386842, 31.266354215145107 75.17685569554567, 1.393245667219162 75.36160233616829 M73.5660236030817 73.5253443568945 C44.64388568997383 73.80407305985689, 15.464682957530016 73.39162846833467, 0.8589375168085098 73.77287386357784 M0.7083167731761932 73.15895798802376 C-1.752188386619091 49.33917395174503, 0.5848792174458504 24.81190090179443, -0.46700385212898254 1.2570538818836212 M-0.7495868057012558 74.69530199468136 C0.5729030790925025 54.69592132568359, -0.6345482644438745 34.394767585396764, -0.38024161756038666 -0.6431212574243546" stroke="#000000" stroke-width="1" fill="none"></path></g><g transform="translate(149.64253683582388 212) rotate(0 117.5 37)"><path d="M-1.1460132748118639 -0.15578044348227976 C69.18540608793485 -1.1249480840909452, 134.64698209020793 -0.8937224435613127, 235.03872125397766 0.6817307554503679 M0.464279521977961 0.15339739815849066 C68.44559073652655 0.7755379861122698, 136.54342055806976 1.2101747519375414, 234.56591125370747 -0.5280162867875695 M235.01195713877678 1.183045893907547 C234.4449008628726 25.838541409373285, 234.9033673927188 48.70256353616715, 234.51333329081535 74.11128094792366 M234.1088621765375 -0.1138763576745987 C234.718653614223 20.280635994672778, 235.981264526546 42.64974246323109, 234.2321441322565 74.82940815389156 M235.55564093846786 74.08769278208077 C157.28905807887207 75.26348040884265, 77.61616125724015 75.0728092922922, 0.8288257345913648 74.23813845977318 M235.06469393346555 74.37130231510109 C186.0189224892989 75.77765947018645, 137.8959635154081 75.98311172587988, -0.2870783962063193 74.81711272475953 M-1.1171417534351349 72.45041993260384 C0.48317923575639726 47.09358412325382, 1.0357009413838387 23.986290550231928, 0.9788999259471893 0.47832539677619934 M0.6260636001825333 74.7160444110632 C0.03533414751291275 46.6980697631836, -0.3745708093047142 21.36855641901493, 0.0755479484796524 0.7750210613012314" stroke="#000000" stroke-width="1" fill="none"></path></g><g><g transform="translate(68.64253683582388 176) rotate(0 195.25214137096424 -0.5959818195970854)"><path d="M0.679476910829544 0.6299626529216766 C65.72817400097848 0.4872012317180634, 325.9637821018696 0.32583934664726244, 390.9272191822529 0.1971465289592742 M-0.4229364403244109 -0.0849108996335417 C64.49330533334054 -0.09825431876815856, 325.4061488363985 -2.0195182081405076, 390.46596378930843 -1.8219262921158226" stroke="#000000" stroke-width="1" fill="none"></path></g></g><g transform="translate(161.64253683582388 112.5) rotate(0 86.5 22)"><text x="0" y="32" font-family="Virgil, Segoe UI Emoji" font-size="28px" fill="#000000" text-anchor="start" style="white-space: pre;" direction="ltr">Static Table</text></g><g><g transform="translate(73.64253683582388 166) rotate(0 -0.29006049483083984 14.877508902582349)"><path d="M-0.5258854687213897 -0.21746065020561223 C-2.9559739569822945 1.6477891743183135, -13.050659002860387 9.272606259584427, -15.443046075105666 11.922908574342728 C-17.835433147350948 14.573210889101029, -19.423243600130082 13.008178120851516, -14.880207902193069 15.684353238344192 C-10.337172204256056 18.36052835583687, 6.8994049568971 25.64334104657173, 11.815168112516403 27.979959279298782 C16.730931268135706 30.316577512025834, 13.81565906405449 29.17868097424507, 14.61437103152275 29.704062634706496 C15.413082998991012 30.229444295167923, 16.275974450508752 30.896033841371537, 16.607439917325973 31.13224924206734 M1.3988859308604153 -1.3772314369026573 C-1.0650203025496254 0.6216422936972228, -13.355873848314708 10.906801334088668, -16.098690728163348 13.419860827093943 C-18.841507608011987 15.93292032009922, -19.822802205896004 11.614719193940982, -15.05801534823142 13.701125521128997 C-10.293228490566834 15.787531848317013, 7.213544058486198 23.23191385394894, 12.490030417824164 25.938298790222035 C17.76651677716213 28.64468372649513, 15.713643969083204 29.14803161538206, 16.600902807796373 29.939435138767585 C17.488161646509543 30.73083866215311, 17.74077277410465 30.615912138884887, 17.813583450103177 30.686719930535183" stroke="#000000" stroke-width="1" fill="none"></path></g></g><g><g transform="translate(444.6425368358239 159) rotate(0 8.25046164978761 15.979380480116248)"><path d="M-0.0425703227519989 -0.5120495617389679 C3.805457415183385 2.2015549838542934, 24.583918299277624 11.453557763497034, 23.455605298280716 16.923353308439253 C22.327292297283808 22.393148853381472, -1.6131982346375784 29.608015809456507, -6.812448328733444 32.30672370791435 M-1.524058471536264 -1.8264795269910248 C2.1736625400030363 0.9411351532395924, 23.65185653744576 11.960252377555395, 22.746752616250888 17.895539046591146 C21.841648695056016 23.830825715626897, -1.9374830235199383 31.576971669063592, -6.9546819987054915 33.78524048722349" stroke="#000000" stroke-width="1" fill="none"></path></g></g><g transform="translate(517.6425368358239 211.5) rotate(0 37 37)"><path d="M1.7401313483715057 1.8803172409534454 C23.47458976209164 0.671174940764904, 44.77151765823365 -0.3688803341984749, 72.90123650431633 1.5872998535633087 M0.714852586388588 0.6491975635290146 C23.65514512062073 0.41604469865560534, 48.301751741766935 1.156020151078701, 73.17770363390446 0.9321122020483017 M73.67455956339836 -1.3353151977062225 C72.86689622610807 23.52988099753857, 73.48438985556363 44.676845991611486, 75.49676701426506 72.44054558873177 M73.80685020983219 0.4664788097143173 C72.87433962076902 21.597199600934985, 72.94049362391233 41.54870591461659, 73.66888643801212 74.81724928319454 M74.00568577647209 72.45811608433723 C55.66440382301808 74.47676409512758, 38.56332572698593 74.76550520688295, -1.500262290239334 74.83898785710335 M73.55328203737736 74.47722624242306 C56.49140213131905 73.73150079995393, 38.812594124674796 73.95600384026766, -0.8080551475286484 74.36997364461422 M-0.9354353249073029 75.60143139958382 C-1.8701817128062248 43.072388806939124, 0.1675389674305916 16.303630638122556, 1.4599532783031464 1.4046969711780548 M0.858933225274086 73.56571720540524 C0.6069553843140603 58.635032653808594, -0.5843674191832542 43.02025081217289, 0.29228903353214264 -0.9160623699426651" stroke="#000000" stroke-width="1" fill="none"></path></g><g transform="translate(831.6425368358239 210.5) rotate(0 37 37)"><path d="M1.8803172409534454 0.7935380637645721 C22.722405925393105 -1.2344343373179436, 43.52888059616089 -1.7426120945811272, 75.58729985356331 0.5512313544750214 M0.6491975635290146 -0.5844108909368515 C23.91011748313904 -0.7063511952757835, 48.65832683146 -1.351287280023098, 74.9321122020483 -0.01189492642879486 M72.66468480229378 -0.9999084770679474 C75.06773046284914 20.485632184147835, 74.10271791249514 43.23286107778549, 72.44054558873177 73.57611367106438 M74.46647880971432 -0.6013762801885605 C75.24783414155245 16.421936732530597, 74.56771987229585 33.583204457163816, 74.81724928319454 73.44014908373356 M72.45811608433723 73.72150704264641 C56.83694090545177 74.67963590353727, 39.096167337894435 72.50184144705534, 0.8389878571033478 72.78285023570061 M74.47722624242306 74.1879480034113 C56.07228090167045 73.87511457651854, 37.930992177128786 72.8613735601306, 0.36997364461421967 74.99779917299747 M1.6014313995838165 72.69508931040764 C-0.781458869278431 46.88009975850582, 2.033496842086315 19.75453281402588, 1.4046969711780548 -1.8725042641162872 M-0.4342827945947647 74.73522211611271 C-0.816643775999546 50.061231994628905, -1.1596913948655128 27.326954397559163, -0.9160623699426651 0.7533404976129532" stroke="#000000" stroke-width="1" fill="none"></path></g><g transform="translate(594.6425368358239 211.5) rotate(0 117.5 37)"><path d="M0.6678702018345594 0.7371687560187578 C76.50358288156735 -1.9976668560336561, 153.07652328676403 -0.5235589510997267, 235.46393615225495 0.41131749816429614 M-0.4918612446045279 -0.08257830516868829 C54.02263785327536 -0.743800220652142, 107.65174707768114 -0.49951271007589393, 234.98998880170018 -0.15148913086181878 M234.00009152293205 1.4179034531116486 C234.49717219084502 19.15116100013256, 236.37635405272246 35.8370857834816, 234.57611367106438 72.58301594853401 M234.39862371981144 0.965579017996788 C234.32184687823056 25.3080159842968, 234.52595559328793 50.86235175430775, 234.44014908373356 73.43642090260983 M234.76561030134476 74.72924021253884 C177.44557330884493 73.44745173866195, 117.48800094024647 73.1813189958908, -1.0243970590258835 73.12783576156914 M235.15818380579907 74.36869772676414 C187.11154352981478 75.50152691415636, 138.1967734936376 75.25526248491327, 0.8397837047649025 74.642908706613 M-1.3049106895923615 72.65610268712044 C1.078921060860157 58.89544283449649, 1.8060643485188483 42.25346584320068, -1.8725042641162872 0.3466668426990509 M0.735222116112709 73.90676687657833 C-1.091711274087429 44.12961273193359, -0.343321553170681 14.215724578499788, 0.7533404976129532 0.4991602748632431" stroke="#000000" stroke-width="1" fill="none"></path></g><g transform="translate(535.6425368358239 226.5) rotate(0 19 22)"><text x="19" y="32" font-family="Virgil, Segoe UI Emoji" font-size="28px" fill="#000000" text-anchor="middle" style="white-space: pre;" direction="ltr">s+1</text></g><g transform="translate(416.1425368358239 226) rotate(0 7.5 22)"><text x="7.5" y="32" font-family="Virgil, Segoe UI Emoji" font-size="28px" fill="#000000" text-anchor="middle" style="white-space: pre;" direction="ltr">s</text></g><g transform="translate(107.14253683582388 227) rotate(0 2.5 22)"><text x="2.5" y="32" font-family="Virgil, Segoe UI Emoji" font-size="28px" fill="#000000" text-anchor="middle" style="white-space: pre;" direction="ltr">1</text></g><g transform="translate(845.1425368358239 225.5) rotate(0 23.5 22)"><text x="23.5" y="32" font-family="Virgil, Segoe UI Emoji" font-size="28px" fill="#000000" text-anchor="middle" style="white-space: pre;" direction="ltr">s+k</text></g><g transform="translate(192.64253683582388 228) rotate(0 53.5 22)"><text x="0" y="32" font-family="Virgil, Segoe UI Emoji" font-size="28px" fill="#000000" text-anchor="start" style="white-space: pre;" direction="ltr">..............</text></g><g transform="translate(663.6425368358239 231) rotate(0 53.5 22)"><text x="0" y="32" font-family="Virgil, Segoe UI Emoji" font-size="28px" fill="#000000" text-anchor="start" style="white-space: pre;" direction="ltr">..............</text></g><g><g transform="translate(520.6425368358239 174.75) rotate(0 194.42524516229054 -0.6554123698423098)"><path d="M0.45855705142021175 -0.19257089495658875 C65.49617282748223 -0.44144460558891296, 324.79321548342705 -0.8953994929790496, 389.6103295505047 -0.9822675883769989 M-0.7598392259236426 -1.3392745601478966 C64.13950354375876 -1.5144392206612975, 323.62103474327364 -0.2219074385706335, 388.45770710089243 0.03946717894636098" stroke="#000000" stroke-width="1" fill="none"></path></g></g><g transform="translate(613.6425368358239 111.25) rotate(0 98.5 22)"><text x="0" y="32" font-family="Virgil, Segoe UI Emoji" font-size="28px" fill="#000000" text-anchor="start" style="white-space: pre;" direction="ltr">Dynamic Table</text></g><g><g transform="translate(525.6425368358239 164.75) rotate(0 -0.5413603127003057 14.298612593507755)"><path d="M-0.3896704494953155 -0.9822675883769989 C-3.2392230490843454 0.9308643162250518, -13.962258925040565 8.63276270031929, -16.63875854611397 11.286220532655715 C-19.315258167187373 13.93967836499214, -20.911692887544632 12.472625333070754, -16.448668175935744 14.938479405641555 C-11.985643464326856 17.404333478212358, 4.830785991748175 23.737274342775347, 10.139389723539352 26.081344968080522 C15.44799345533053 28.425415593385697, 14.069800108671188 28.421045666933058, 15.402954214811325 29.00290315747261 C16.736108320951463 29.58476064801216, 18.062055192391078 29.5995252430439, 18.13831436038017 29.572489911317824 M1.6066138351801782 1.1164379823859782 C-0.8869751680052529 3.1883318851049993, -11.086063729639477 9.931039906209335, -14.262152246451006 12.448911563521252 C-17.438240763262534 14.966783220833168, -21.482687369203195 13.848001192575321, -17.449917265689 16.223667926257477 C-13.417147162174803 18.599334659939633, 4.668900136634086 24.595162130659446, 9.93446837463416 26.702911965614184 C15.200036612634236 28.810661800568923, 13.051209062123672 28.602637771731242, 14.14349216231145 28.870166935985907 C15.235775262499228 29.13769610024057, 16.194545905475195 28.02873652643524, 16.488166975760834 28.308086951142176" stroke="#000000" stroke-width="1" fill="none"></path></g></g><g><g transform="translate(896.6425368358239 157.75) rotate(0 7.881961822444623 15.683148807468797)"><path d="M-0.9822675883769989 -0.6387585461139679 C2.764197649558385 2.351408499479294, 23.466096033652622 12.254973779122036, 22.286220532655715 17.551331824064256 C21.106345031658808 22.847689869006476, -2.860708000262579 28.664119325081508, -8.061520594358445 31.139389723539352 M0.7029031983856111 1.6402892718371005 C4.855741397424912 4.829661764567718, 26.217177582367636 13.792411801383523, 24.623440848672765 18.853206282919274 C23.029704114977893 23.914000764455025, -3.229935416098063 29.527529530391714, -8.859517203783616 32.00505616105161" stroke="#000000" stroke-width="1" fill="none"></path></g></g><g><g transform="translate(58.642536835823876 91) rotate(0 0 0)"><path d="M0.9377182487262502 0.26880784460506446 C0.94703945507773 0.042742398763646154, 0.9199159801084907 -0.15167899377646324, 0.9447627967852469 -0.31759130376354283 M0.951548002328649 0.19879410106506223 C0.9140712935435402 0.06280050565033952, 0.9344122055887071 -0.06761131530294912, 0.905708365275288 -0.3504945696712397 M1.6376445871132517 0.9014675483925457 C0.7091883474268817 -0.13660269113453602, 0.566752230611208 -0.9004349617502926, -0.03240608486504293 -1.4149006383776483 M1.391452163303739 0.6924339100761291 C0.8664574191606569 -0.05113202504163311, 0.3947168085130251 -1.003030021827748, -0.1727853582871398 -1.4322742422500254" stroke="#000000" stroke-width="1" fill="none"></path></g><g transform="translate(58.642536835823876 91) rotate(0 0 0)"><path d="M-0.1727853582871398 -1.4322742422500254 C-0.1727853582871398 -1.4322742422500254, -0.1727853582871398 -1.4322742422500254, -0.1727853582871398 -1.4322742422500254 M-0.1727853582871398 -1.4322742422500254 C-0.1727853582871398 -1.4322742422500254, -0.1727853582871398 -1.4322742422500254, -0.1727853582871398 -1.4322742422500254" stroke="#000000" stroke-width="1" fill="none"></path></g><g transform="translate(58.642536835823876 91) rotate(0 0 0)"><path d="M-0.1727853582871398 -1.4322742422500254 C-0.1727853582871398 -1.4322742422500254, -0.1727853582871398 -1.4322742422500254, -0.1727853582871398 -1.4322742422500254 M-0.1727853582871398 -1.4322742422500254 C-0.1727853582871398 -1.4322742422500254, -0.1727853582871398 -1.4322742422500254, -0.1727853582871398 -1.4322742422500254" stroke="#000000" stroke-width="1" fill="none"></path></g></g><g><g transform="translate(510.6425368358239 398) rotate(0 -0.06788045625671657 -51.738675196254604)"><path d="M0.15818651318550114 -0.9788220226764679 C0.2856413344542186 -18.14047789374987, 1.0393626352151235 -85.79290219744047, 1.082143384218216 -102.65670040249825 M-1.2179042967315765 1.1216924700792879 C-1.2690569831089429 -16.44296498510676, 0.08390914975044612 -87.06809906287428, 0.1772231973055749 -104.59904286258853" stroke="#000000" stroke-width="1" fill="none"></path></g><g transform="translate(510.6425368358239 398) rotate(0 -0.06788045625671657 -51.738675196254604)"><path d="M8.441267152002201 -76.14110648679399 C7.3405072576399855 -86.48561737559736, 4.935286021074845 -92.98382812394551, 0.81719734438695 -104.40698909753002 M10.146768663695202 -75.87763555395269 C8.634455353240499 -83.22048456742068, 5.155553640982387 -89.84174959751617, -0.48838999203406286 -104.41330547624267" stroke="#000000" stroke-width="1" fill="none"></path></g><g transform="translate(510.6425368358239 398) rotate(0 -0.06788045625671657 -51.738675196254604)"><path d="M-12.078227589465833 -76.4063194968544 C-6.479681422367447 -86.69130050672922, -2.186288880392934 -93.1029321484365, 0.81719734438695 -104.40698909753002 M-10.372726077772832 -76.1428485640131 C-7.140116615643004 -83.34407157812248, -5.871532465539833 -89.90397569111742, -0.48838999203406286 -104.41330547624267" stroke="#000000" stroke-width="1" fill="none"></path></g></g><g transform="translate(419.6425368358239 402) rotate(0 101 22)"><text x="0" y="32" font-family="Virgil, Segoe UI Emoji" font-size="28px" fill="#000000" text-anchor="start" style="white-space: pre;" direction="ltr">Insertion Point</text></g><g><g transform="translate(907.6425368358239 296) rotate(0 -0.2461434767302535 48.52647104266566)"><path d="M-0.8404237926006317 -0.8968926250934601 C-1.027206438779831 15.251326992114382, -0.2797147929668426 80.35389536420504, -0.3039058864116668 96.9589570224285 M0.9192149869445712 1.246634801393375 C0.47635016270913183 17.50203746583623, -1.4901839282270524 82.02826721863511, -1.4115019404049964 97.94983471042477" stroke="#000000" stroke-width="1" fill="none"></path></g><g transform="translate(907.6425368358239 296) rotate(0 -0.2461434767302535 48.52647104266566)"><path d="M-12.728721143448745 69.09688783328468 C-9.337232352524882 78.46292682332118, -2.7644093592606227 92.01209694482051, -0.6753230356331916 98.04174695021473 M-11.39105276926795 69.68697791438038 C-7.522588769803731 78.72328152928552, -4.476645671004772 88.34546037378522, -0.7486763708945365 97.2029005498346" stroke="#000000" stroke-width="1" fill="none"></path></g><g transform="translate(907.6425368358239 296) rotate(0 -0.2461434767302535 48.52647104266566)"><path d="M7.7900220133427815 69.41497846731885 C3.6290779244806597 78.52023549711795, 2.6496526347522034 91.95232732457345, -0.6753230356331916 98.04174695021473 M9.127690387523575 70.00506854841454 C6.127660745873997 78.78324672605724, 2.3042088178906255 88.29893316978936, -0.7486763708945365 97.2029005498346" stroke="#000000" stroke-width="1" fill="none"></path></g></g><g transform="translate(806.6425368358239 396) rotate(0 100.5 22)"><text x="0" y="32" font-family="Virgil, Segoe UI Emoji" font-size="28px" fill="#000000" text-anchor="start" style="white-space: pre;" direction="ltr">Dropping Point</text></g><g><g transform="translate(57.642536835823876 86) rotate(0 421.5707544209483 -1.9366375255258674)"><path d="M-0.08025457262992863 -0.36847541928291316 C140.6988400598367 -0.6248049557209014, 704.0727558592956 -1.6685826122760774, 844.7230357944966 -1.9391638576984407 M-1.5815269526001066 -1.6075289597455413 C139.01107107309934 -2.14156375461258, 702.349833816473 -3.1385116954986003, 843.62958412298 -3.5047996317688375" stroke="#000000" stroke-width="1" fill="none"></path></g></g><g><g transform="translate(73.64253683582388 64) rotate(0 -29.263363363385423 30.68757857149521)"><path d="M-0.4278605282306671 1.1444417774677278 C-0.3072267671426137 1.0900565922260286, 10.842983613411585 -6.104663676023484, 1.1490401446819305 -0.8831760585308075 C-8.544903324047725 4.338311558961869, -49.02030532956123 25.474770083030066, -58.591521340608594 32.47336748242378 C-68.16273735165596 39.4719648818175, -59.339988722403845 38.837714177370074, -56.27825592160225 41.1084083378315 C-53.21652312080066 43.37910249829292, -47.932277502616245 42.9326712111632, -40.22112453579903 46.097532445192336 C-32.50997156898181 49.26239367922147, -15.361299274365107 57.35606045524279, -10.011338120698928 60.0975757420063 C-4.66137696703275 62.83909102876981, -9.372431641817093 62.21888451377551, -8.121357613801957 62.546624165773395 C-6.87028358578682 62.87436381777128, -3.1589688758055368 62.11339599092801, -2.5048939526081084 62.064013653993605 C-1.85081902941068 62.0146313170592, -4.095455247163772 62.11309749086698, -4.196908074617386 62.250330144166945 M1.5483739651087673 0.6996697652991863 C1.4868191619558884 0.8211001060064884, 10.48193114150005 -5.278535317713395, 0.27924075701273976 0.19058176196180288 C-9.92344962747457 5.659698841637001, -50.25832134327851 27.02377193626327, -59.6677683418151 33.51437224335037 C-69.07721534035169 40.00497255043748, -59.24153130244774 37.48583287841641, -56.17744123420678 39.13418360448443 C-53.113351165965824 40.782534330552444, -49.124459295089665 40.07536672668221, -41.283227932369336 43.40447659975849 C-33.44199656964901 46.733586472834766, -14.666069656327988 56.09495272503855, -9.130053057884798 59.1088428429421 C-3.5940364594416074 62.12273296084565, -9.043676330661402 61.04650931017163, -8.067128341710195 61.487817307179796 C-7.090580352758988 61.92912530418796, -4.142422038630272 61.315773278142636, -3.27076512417756 61.75669082499109 C-2.3991082097248486 62.19760837183954, -2.981424110149965 64.03011228438777, -2.8371868549939245 64.13332258827053" stroke="#000000" stroke-width="1" fill="none"></path></g></g><g><g transform="translate(891.6425368358239 61) rotate(0 -2.311389018084583 31.294063264643796)"><path d="M-0.6916474163532257 -0.1124347865581512 C0.6309618492921193 0.9927605132261914, 4.144768828153611 4.569437136252722, 7.060418051481247 7.639763051271439 C9.976067274808884 10.710088966290156, 13.800004055102665 15.629077194134394, 16.802247923612594 18.309520703554153 C19.804491792122523 20.989964212973913, 23.485238061348596 21.993126024802528, 25.073881262540816 23.722424107789994 C26.662524463733035 25.45172219077746, 25.986343242724736 27.274669565757115, 26.334107130765915 28.685309201478958 C26.681871018807094 30.0959488372008, 26.807941995064418 31.13471042116483, 27.16046459078789 32.18626192212105 C27.51298718651136 33.23781342307726, 29.206740047534307 33.782167861859, 28.449242705106734 34.99461820721626 C27.69174536267916 36.207068552573524, 25.724859795967735 38.007211158672966, 22.615480536222456 39.4609639942646 C19.506101276477178 40.91471682985624, 15.156506969531376 42.147926249106725, 9.792967146635055 43.71713522076607 C4.429427323738734 45.28634419242541, -4.085362702608109 46.95698240399361, -9.565758401155472 48.87621782422066 C-15.046154099702836 50.795453244447714, -19.13571015795072 53.20163222750028, -23.089407044649125 55.232547742128375 C-27.04310393134753 57.26346325675647, -31.57741300066312 60.03037832379341, -33.2879397213459 61.06171091198921 M1.1460989607218655 -1.2170669948402792 C2.915056802018856 0.06022358553173657, 6.292153593981638 2.4394684210078164, 9.279092064881697 5.853063904410228 C12.266030535781756 9.26665938781264, 16.910150468333935 16.12659028069737, 19.067729786122218 19.26450590557419 C21.2253091039105 22.402421530451008, 21.229439542774735 23.072835945750896, 22.224567971611396 24.68055765367113 C23.219696400448058 26.288279361591364, 24.053937341555333 27.729414217437927, 25.038500359142198 28.910836153095588 C26.023063376729063 30.092258088753248, 27.417023279552037 30.45739392306966, 28.131946077132596 31.76908926761709 C28.846868874713156 33.08078461216452, 30.452060495599486 35.51551641599896, 29.32803714462556 36.78100822038017 C28.204013793651637 38.046500024761386, 24.852916685823974 38.46134140895369, 21.387805971289055 39.36204009390436 C17.922695256754135 40.26273877885503, 13.617818270310138 40.68572614070339, 8.537372857416049 42.18520033008419 C3.456927444521958 43.684674519465, -3.9567954402323817 46.0873045427259, -9.094866506075487 48.35888523018919 C-14.232937571918592 50.63046591765247, -18.085751411135618 53.24029973920746, -22.291053537642583 55.814684454863894 C-26.496355664149547 58.38906917052033, -32.57795538377327 63.05900321370922, -34.32667926511727 63.80519352412782" stroke="#000000" stroke-width="1" fill="none"></path></g></g><g transform="translate(254.64253683582388 10) rotate(0 191.5 28.5)"><text x="191.5" y="41" font-family="Virgil, Segoe UI Emoji" font-size="36px" fill="#000000" text-anchor="middle" style="white-space: pre;" direction="ltr">Index Address Space</text></g></svg>